<svg xmlns="http://www.w3.org/2000/svg" xmlns:xlink="http://www.w3.org/1999/xlink" id="Layer_1" x="0px" y="0px" viewBox="0 0 360 23" style="enable-background:new 0 0 360 23;" xml:space="preserve">
<style type="text/css">
	.st0{fill:#8360FD;}
</style>
<g>
	<path class="st0" d="M5.2,20.6c-1.1,0-2.1-0.8-2.2-2c-0.2-1.2,0.7-2.4,1.9-2.5C7.3,15.9,243-14.3,358,8.5c1.2,0.2,2,1.4,1.8,2.6   c-0.2,1.2-1.4,2-2.6,1.8C242.9-9.7,7.8,20.3,5.5,20.6C5.4,20.6,5.3,20.6,5.2,20.6z"></path>
</g>
<g>
	<path class="st0" d="M354.8,22.9c-0.2,0-0.4,0-0.5-0.1C241.2-4.9,5,14.5,2.7,14.7c-1.2,0.1-2.3-0.8-2.4-2.1   c-0.1-1.2,0.8-2.3,2.1-2.4C4.7,10,241.5-9.5,355.4,18.5c1.2,0.3,1.9,1.5,1.6,2.7C356.7,22.2,355.8,22.9,354.8,22.9z"></path>
</g>
</svg>